<svg width="79" height="79" xmlns="http://www.w3.org/2000/svg" xmlns:xlink="http://www.w3.org/1999/xlink"
     overflow="hidden">
    <g>
        <g>
            <g>
                <g>
                    <path d="M40 2.09C19.0182 2.085 2.0049 19.0901 1.99994 40.0719 1.99807 47.895 4.4113 55.5279 8.91 61.928L8.91 61.928 8.915 61.928C20.9758 79.1031 44.6762 83.2491 61.8513 71.1883 79.0264 59.1275 83.1723 35.4271 71.1115 18.252 63.9943 8.1168 52.3846 2.0857 40 2.09ZM31.917 54.09 23.834 40.09 31.917 26.09 48.083 26.09 56.166 40.09 48.083 54.09ZM58.475 40.09 58.467 40.077 69.967 20.164C76.6671 30.2164 77.8693 42.9621 73.167 54.09L50.392 54.09ZM68.688 18.373 57.312 38.073 49.53 24.6 49.542 24.593 37.75 4.168C38.495 4.121 39.244 4.09 40 4.09 51.2727 4.0916 61.8925 9.3788 68.688 18.373ZM35.56 4.373 46.943 24.09 7.764 24.09C13.1456 13.2801 23.5788 5.8797 35.56 4.374ZM4 40.09C3.9949 35.2804 4.9587 30.519 6.834 26.09L29.608 26.09 21.914 39.417 21.908 39.417 10.024 60C6.089 54.1062 3.9924 47.1767 4 40.09ZM11.3 61.79 22.677 42.084 30.763 56.09 30.773 56.09 42.273 76.011C41.52 76.058 40.764 76.09 39.999 76.09 28.7196 76.0883 18.0944 70.7944 11.3 61.791ZM44.464 75.8 33.083 56.09 72.236 56.09C66.8577 66.8913 56.4352 74.2883 44.464 75.8Z"
                          stroke="#D86ECC"/>
                </g>
            </g>
        </g>
    </g>
</svg>