<svg width="340" height="340" xmlns="http://www.w3.org/2000/svg" xmlns:xlink="http://www.w3.org/1999/xlink"
     overflow="hidden">
    <g clip-path="url(#clip0)">
        <path d="M131.187 103 188 103 131.325 4C78.8608 16.371 35.3266 53.1059 14 103Z" fill="#5982DB"
              fill-rule="evenodd"/>
        <path d="M226.17 133.673 226.068 133.731 236.575 152 293 53.915C261.155 19.4928 216.465-0.0451341 169.678 0.000104963 163.102 0.0134353 156.531 0.409566 150 1.18535Z"
              fill="#632E62" fill-rule="evenodd"/>
        <path d="M219 218 331.758 218C347.258 166.684 337.572 111.063 305.637 68Z" fill="#92278F" fill-rule="evenodd"/>
        <path d="M207.814 236 151 236 207.676 334C260.141 321.755 303.675 285.391 325 236Z" fill="#9B57D3"
              fill-rule="evenodd"/>
        <path d="M112.322 205.436 112.429 205.378 101.781 187 45 285.062C77.0564 319.496 122.066 339.044 169.192 339 175.812 338.986 182.426 338.591 189 337.816Z"
              fill="#755DD9" fill-rule="evenodd"/>
        <path d="M120 120 7.25044 120C-8.25407 171.309 1.4128 226.92 33.3252 270Z" fill="#45A5ED" fill-rule="evenodd"/>
    </g>
</svg>